<?xml version="1.0" standalone="no"?>
<!DOCTYPE svg PUBLIC "-//W3C//DTD SVG 20010904//EN"
 "http://www.w3.org/TR/2001/REC-SVG-20010904/DTD/svg10.dtd">
<svg version="1.0" xmlns="http://www.w3.org/2000/svg"
 width="388.000000pt" height="388.000000pt" viewBox="0 0 388.000000 388.000000"
 preserveAspectRatio="xMidYMid meet">
<metadata>
Created by potrace 1.14, written by Peter Selinger 2001-2017
</metadata>
<g transform="translate(0.000000,388.000000) scale(0.100000,-0.100000)"
fill="#000000" stroke="none">
<path d="M793 3865 c-355 -64 -651 -328 -751 -671 -12 -38 -25 -94 -31 -124
-6 -35 -10 -451 -10 -1135 0 -1026 1 -1084 19 -1167 80 -365 340 -637 709
-741 75 -21 87 -21 1186 -24 1089 -2 1112 -2 1205 18 52 11 99 25 104 30 6 5
16 9 23 9 21 0 124 51 198 99 39 25 106 81 151 125 123 124 208 269 256 442
l23 79 2 1100 c2 920 0 1113 -12 1179 -72 396 -367 696 -770 780 -97 21 -2189
22 -2302 1z"/>
</g>
</svg>
